<?xml version="1.0" encoding="utf-8"?>
<!-- Generator: Adobe Illustrator 16.0.2, SVG Export Plug-In . SVG Version: 6.00 Build 0)  -->
<!DOCTYPE svg PUBLIC "-//W3C//DTD SVG 1.1//EN" "http://www.w3.org/Graphics/SVG/1.1/DTD/svg11.dtd">
<svg version="1.1" id="Layer_1" xmlns="http://www.w3.org/2000/svg" xmlns:xlink="http://www.w3.org/1999/xlink" x="0px" y="0px"
	 width="66px" height="60px" viewBox="0 0 66 60" enable-background="new 0 0 66 60" xml:space="preserve">
<g>
	<polygon fill="#B2B2B2" points="-0.059,43.051 -0.059,43.051 52.639,0 66,59.379 	"/>
	<g>
		<g>
			<path fill="#FFFFFF" d="M33.312,24.838v1.389c3.413,0.259,6.776,2.235,6.776,7.176c0,4.895-3.293,6.871-6.823,7.2v1.436h-3.341
				v-1.436c-3.435-0.259-6.752-2.212-6.752-7.082c0-5.035,3.741-7.035,6.8-7.294v-1.389H33.312z M29.948,28.696
				c-1.389,0.188-3.177,1.389-3.177,4.753c0,3.106,1.765,4.494,3.177,4.659V28.696z M33.289,38.108c1.412-0.165,3.2-1.341,3.2-4.706
				c0-3.341-1.693-4.518-3.2-4.706V38.108z"/>
			<path fill="#FFFFFF" d="M52.867,27.262c-0.66,0.188-1.859,0.353-2.707,0.423c-1.67,0.165-2.847,0.612-3.623,1.506
				c-0.682,0.729-1.152,1.953-1.247,2.848h0.118c0.705-1.247,2.094-2.165,3.787-2.165c3.106,0,5.106,2.282,5.106,5.741
				c0,3.718-2.494,6.047-5.905,6.047c-4.023,0-6.023-3.224-6.023-7.6c0-2.988,0.775-5.412,2.471-7.012
				c1.129-1.2,2.705-1.883,4.799-2.118c1.082-0.117,2.612-0.282,3.436-0.494L52.867,27.262z M50.631,35.708
				c0-1.529-0.564-3.364-2.329-3.364c-0.753,0-1.317,0.4-1.671,0.941c-0.399,0.588-0.611,1.294-0.611,2.282
				c0,1.506,0.635,3.529,2.33,3.529c1.67,0,2.281-1.741,2.281-3.364V35.708z"/>
		</g>
	</g>
</g>
</svg>
