<?xml version="1.0" encoding="utf-8"?>
<!-- Generator: Adobe Illustrator 16.0.2, SVG Export Plug-In . SVG Version: 6.00 Build 0)  -->
<!DOCTYPE svg PUBLIC "-//W3C//DTD SVG 1.1//EN" "http://www.w3.org/Graphics/SVG/1.1/DTD/svg11.dtd">
<svg version="1.1" id="Layer_1" xmlns="http://www.w3.org/2000/svg" xmlns:xlink="http://www.w3.org/1999/xlink" x="0px" y="0px"
	 width="67px" height="62.145px" viewBox="0 0 67 62.145" enable-background="new 0 0 67 62.145" xml:space="preserve">
<g>
	<polygon fill="#B2B2B2" points="0.652,62.145 0.652,62.145 28.374,0 67,47.036 	"/>
	<g>
		<g>
			<path fill="#FFFFFF" d="M18.553,29.521c0.941-0.188,2.824-0.354,4.635-0.354c2.188,0,3.529,0.212,4.683,0.895
				c1.105,0.588,1.882,1.671,1.882,3.129c0,1.389-0.824,2.683-2.588,3.365v0.047c1.812,0.471,3.153,1.858,3.153,3.906
				c0,1.458-0.659,2.588-1.647,3.364c-1.153,0.918-3.083,1.436-6.235,1.436c-1.765,0-3.082-0.118-3.882-0.235V29.521z
				 M22.106,35.568h1.176c1.906,0,2.894-0.776,2.894-1.953c0-1.2-0.917-1.835-2.541-1.835c-0.8,0-1.247,0.047-1.529,0.117V35.568z
				 M22.106,42.604c0.353,0.07,0.776,0.07,1.388,0.07c1.624,0,3.059-0.635,3.059-2.306c0-1.6-1.435-2.235-3.224-2.235h-1.223V42.604
				z"/>
			<path fill="#FFFFFF" d="M36.813,33.639v4.588h0.377l2.917-4.588h4.165l-4.235,4.965c1.364,0.235,2.235,1.482,2.894,3.152
				c0.4,0.941,0.824,2.307,1.389,3.389h-3.741c-0.306-0.494-0.589-1.317-1.035-2.541c-0.494-1.317-1.224-2.023-2.376-2.023h-0.354
				v4.564h-3.577V33.639H36.813z"/>
		</g>
	</g>
</g>
</svg>
