<?xml version="1.0" encoding="utf-8"?>
<!-- Generator: Adobe Illustrator 16.0.2, SVG Export Plug-In . SVG Version: 6.00 Build 0)  -->
<!DOCTYPE svg PUBLIC "-//W3C//DTD SVG 1.1//EN" "http://www.w3.org/Graphics/SVG/1.1/DTD/svg11.dtd">
<svg version="1.1" id="Layer_1" xmlns="http://www.w3.org/2000/svg" xmlns:xlink="http://www.w3.org/1999/xlink" x="0px" y="0px"
	 width="68px" height="56px" viewBox="0 0 68 56" enable-background="new 0 0 68 56" xml:space="preserve">
<g>
	<polygon fill="#B2B2B2" points="68,55.625 68,55.625 -0.024,53.855 28.603,0.145 	"/>
	<g>
		<g>
			<path fill="#FFFFFF" d="M19.129,32.431v6.188h1.906c0.635-3.812,3.224-6.446,6.941-6.446c4.471,0,6.918,3.646,6.918,8.023
				c0,5.224-2.918,8.353-7.153,8.353c-3.929,0-6.399-2.894-6.8-6.918h-1.812v6.659h-3.577V32.431H19.129z M27.882,45.725
				c2.188,0,3.388-2.33,3.388-5.412c0-2.847-1.177-5.317-3.388-5.317c-2.212,0-3.436,2.424-3.436,5.388
				c0,2.988,1.247,5.342,3.412,5.342H27.882z"/>
			<path fill="#FFFFFF" d="M46.942,36.783v2.753h-3.341v8.753h-3.576v-8.753h-3.342v-2.753H46.942z"/>
		</g>
	</g>
</g>
</svg>
