<?xml version="1.0" encoding="utf-8"?>
<!-- Generator: Adobe Illustrator 16.0.2, SVG Export Plug-In . SVG Version: 6.00 Build 0)  -->
<!DOCTYPE svg PUBLIC "-//W3C//DTD SVG 1.1//EN" "http://www.w3.org/Graphics/SVG/1.1/DTD/svg11.dtd">
<svg version="1.1" id="Layer_1" xmlns="http://www.w3.org/2000/svg" xmlns:xlink="http://www.w3.org/1999/xlink" x="0px" y="0px"
	 width="140px" height="150px" viewBox="0 0 140 150" enable-background="new 0 0 140 150" xml:space="preserve">
<polygon fill="#F16B21" points="50.847,150.324 50.847,150.324 0.562,1.101 140.057,20.564 "/>
<g>
	<path fill="#FFFFFF" d="M84.34,82.146l-34.809,0.006c-4.554,0-8.201-3.758-8.201-8.311l-0.027-24.086
		c0-6.23-5.092-11.363-10.962-11.754c-1.4-0.094-2.138,3.396,0,3.538c4.081,0.269,7.423,3.945,7.423,8.216l0.024,24.082
		c0,6.518,5.281,11.799,11.799,11.799l34.752-0.048c0.867,0,1.569-0.782,1.569-1.747C85.909,82.879,85.207,82.146,84.34,82.146z"/>
	<path fill="#FFFFFF" d="M60.402,48.773c0-0.65,0.525-1.178,1.181-1.178h5.996c0.651,0,1.178,0.527,1.178,1.178v1.277h3.539v-1.277
		c0-2.604-2.113-4.719-4.72-4.719H61.58c-2.605,0-4.719,2.114-4.719,4.719v1.277h3.542V48.773z"/>
	<path fill="#FFFFFF" d="M57.941,91.682c0,2.391-1.936,4.327-4.324,4.327c-2.393,0-4.328-1.937-4.328-4.327
		c0-2.389,1.935-4.324,4.328-4.324C56.005,87.357,57.941,89.293,57.941,91.682z"/>
	<circle fill="#FFFFFF" cx="74.85" cy="91.682" r="4.326"/>
	<path fill="#FFFFFF" d="M44.869,74.823c0,2.604,2.114,4.719,4.719,4.719h29.688c2.604,0,4.717-2.114,4.717-4.719v-13.14H44.869
		V74.823z"/>
	<path fill="#FFFFFF" d="M79.275,52.216H49.588c-2.605,0-4.719,2.111-4.719,4.716v2.687h39.124v-2.687
		C83.992,54.327,81.88,52.216,79.275,52.216z M82.299,57.844h-1.308c-0.036-1.466-1.084-2.644-4.279-2.644H52.321
		c-3.194,0-4.243,1.178-4.278,2.644h-1.307v-0.337c0-1.906,1.989-3.448,4.442-3.448h26.676c2.454,0,4.445,1.542,4.445,3.448V57.844z
		"/>
</g>
</svg>
