<?xml version="1.0" encoding="utf-8"?>
<!-- Generator: Adobe Illustrator 16.0.2, SVG Export Plug-In . SVG Version: 6.00 Build 0)  -->
<!DOCTYPE svg PUBLIC "-//W3C//DTD SVG 1.1//EN" "http://www.w3.org/Graphics/SVG/1.1/DTD/svg11.dtd">
<svg version="1.1" id="Layer_1" xmlns="http://www.w3.org/2000/svg" xmlns:xlink="http://www.w3.org/1999/xlink" x="0px" y="0px"
	 width="60px" height="68px" viewBox="0 0 60 68" enable-background="new 0 0 60 68" xml:space="preserve">
<line fill="#B2B2B2" x1="10.297" y1="67.266" x2="0.021" y2="0"/>
<polyline fill="#B2B2B2" points="0.021,0 60,32.138 10.297,67.266 "/>
<g>
	<g>
		<path fill="#FFFFFF" d="M14.635,25.419h-4.282v-3.012h12.188v3.012h-4.33v12.847h-3.576V25.419z"/>
		<path fill="#FFFFFF" d="M25.036,22.643c0.941-0.188,2.824-0.354,4.635-0.354c2.188,0,3.53,0.212,4.682,0.895
			c1.105,0.588,1.883,1.671,1.883,3.129c0,1.389-0.824,2.683-2.588,3.365v0.047c1.811,0.471,3.152,1.858,3.152,3.906
			c0,1.458-0.658,2.588-1.646,3.364c-1.153,0.918-3.083,1.436-6.236,1.436c-1.765,0-3.082-0.118-3.882-0.235V22.643z M28.589,28.689
			h1.176c1.906,0,2.895-0.776,2.895-1.953c0-1.2-0.918-1.835-2.542-1.835c-0.8,0-1.247,0.047-1.529,0.117V28.689z M28.589,35.725
			c0.353,0.07,0.776,0.07,1.388,0.07c1.624,0,3.059-0.635,3.059-2.306c0-1.6-1.435-2.235-3.224-2.235h-1.223V35.725z"/>
	</g>
</g>
</svg>
