<?xml version="1.0" encoding="utf-8"?>
<!-- Generator: Adobe Illustrator 16.0.2, SVG Export Plug-In . SVG Version: 6.00 Build 0)  -->
<!DOCTYPE svg PUBLIC "-//W3C//DTD SVG 1.1//EN" "http://www.w3.org/Graphics/SVG/1.1/DTD/svg11.dtd">
<svg version="1.1" id="Layer_1" xmlns="http://www.w3.org/2000/svg" xmlns:xlink="http://www.w3.org/1999/xlink" x="0px" y="0px"
	 width="20.444px" height="63.133px" viewBox="0 0 20.444 63.133" enable-background="new 0 0 20.444 63.133" xml:space="preserve">
<g>
	<rect y="21.607" fill="#414242" width="4.986" height="19.945"/>
	<rect fill="#414242" width="16.622" height="4.988"/>
	<polygon fill="#F26B21" points="9.973,31.579 6.646,31.58 6.646,19.945 8.311,18.283 9.973,19.945 	"/>
	<rect x="11.635" y="21.607" fill="#414242" width="4.986" height="19.945"/>
	<polygon fill="#414242" points="4.986,43.215 0,43.215 0,63.162 16.622,63.162 16.622,43.215 11.633,43.215 11.633,58.174 
		4.986,58.174 	"/>
	<polygon fill="#F26B21" points="14.98,47.359 14.98,47.359 6.648,51.525 6.648,43.194 	"/>
	<polygon fill="#F26B21" points="0,13.551 0,20.605 8.311,12.295 16.622,20.613 16.622,13.551 8.306,5.236 	"/>
	<g>
		<path fill="#414242" d="M18.606,63.133v-0.179h1.838v0.179H18.606z"/>
		<path fill="#414242" d="M20.444,60.86v0.179h-1.838v-1.064h0.152v0.886H20.444z"/>
		<path fill="#414242" d="M19.669,58.063h0.774v0.178h-1.838v-0.512c0-0.387,0.137-0.646,0.528-0.646
			c0.38,0,0.535,0.271,0.535,0.612V58.063z M18.758,58.063h0.756v-0.349c0-0.21-0.074-0.447-0.382-0.447
			c-0.279,0-0.374,0.24-0.374,0.439V58.063z"/>
		<path fill="#414242" d="M18.851,53.957v0.008l1.593,1.126V55.3h-1.838v-0.179h1.601v-0.008l-1.601-1.128v-0.207h1.838v0.179
			H18.851z"/>
		<path fill="#414242" d="M19.564,48.284v1.168h0.88v0.178h-1.838v-0.178h0.806v-1.168h-0.806v-0.175h1.838v0.175H19.564z"/>
		<path fill="#414242" d="M19.525,46.292c-0.527,0-0.95-0.385-0.95-0.948c0-0.586,0.421-0.95,0.95-0.95
			c0.548,0,0.95,0.377,0.95,0.95C20.475,45.899,20.075,46.292,19.525,46.292z M19.525,46.108c0.393,0,0.795-0.289,0.795-0.765
			c0-0.485-0.39-0.767-0.795-0.767c-0.411,0-0.795,0.289-0.795,0.767C18.73,45.829,19.114,46.108,19.525,46.108z"/>
		<path fill="#414242" d="M20.444,42.562h-1.838v-0.53c0-0.39,0.165-0.583,0.438-0.583c0.237,0,0.39,0.098,0.446,0.346h0.008
			c0.026-0.264,0.228-0.4,0.468-0.4c0.341,0,0.478,0.282,0.478,0.659V42.562z M18.758,42.383h0.661v-0.212
			c0-0.253-0.016-0.544-0.349-0.544c-0.251,0-0.313,0.2-0.313,0.366V42.383z M19.572,42.383h0.72v-0.317
			c0-0.25-0.067-0.488-0.343-0.488c-0.352,0-0.377,0.323-0.377,0.57V42.383z"/>
		<path fill="#414242" d="M19.525,39.644c-0.527,0-0.95-0.385-0.95-0.947c0-0.587,0.421-0.95,0.95-0.95
			c0.548,0,0.95,0.377,0.95,0.95C20.475,39.251,20.075,39.644,19.525,39.644z M19.525,39.46c0.393,0,0.795-0.289,0.795-0.764
			c0-0.485-0.39-0.768-0.795-0.768c-0.411,0-0.795,0.29-0.795,0.768C18.73,39.182,19.114,39.46,19.525,39.46z"/>
		<path fill="#414242" d="M20.444,35.742v0.179h-1.838v-1.063h0.152v0.885H20.444z"/>
		<path fill="#414242" d="M19.525,33.21c-0.527,0-0.95-0.385-0.95-0.948c0-0.586,0.421-0.95,0.95-0.95c0.548,0,0.95,0.377,0.95,0.95
			C20.475,32.817,20.075,33.21,19.525,33.21z M19.525,33.026c0.393,0,0.795-0.289,0.795-0.765c0-0.485-0.39-0.767-0.795-0.767
			c-0.411,0-0.795,0.289-0.795,0.767C18.73,32.748,19.114,33.026,19.525,33.026z"/>
		<path fill="#414242" d="M18.758,25.888v1.165h1.686v0.178h-1.838V25.71h1.838v0.178H18.758z"/>
		<path fill="#414242" d="M19.525,23.892c-0.527,0-0.95-0.385-0.95-0.947c0-0.586,0.421-0.951,0.95-0.951
			c0.548,0,0.95,0.377,0.95,0.951C20.475,23.5,20.075,23.892,19.525,23.892z M19.525,23.709c0.393,0,0.795-0.289,0.795-0.764
			c0-0.486-0.39-0.768-0.795-0.768c-0.411,0-0.795,0.29-0.795,0.768C18.73,23.43,19.114,23.709,19.525,23.709z"/>
		<path fill="#414242" d="M19.486,19.988h0.958v0.179h-1.838v-0.179h0.856l-0.856-0.901v-0.24l0.867,0.921l0.971-1.022V19
			L19.486,19.988z"/>
		<path fill="#414242" d="M19.525,17.123c-0.527,0-0.95-0.385-0.95-0.947c0-0.586,0.421-0.951,0.95-0.951
			c0.548,0,0.95,0.377,0.95,0.951C20.475,16.73,20.075,17.123,19.525,17.123z M19.525,16.939c0.393,0,0.795-0.289,0.795-0.764
			c0-0.485-0.39-0.768-0.795-0.768c-0.411,0-0.795,0.29-0.795,0.768C18.73,16.661,19.114,16.939,19.525,16.939z"/>
		<path fill="#414242" d="M18.758,12.145v0.772h0.596c0.527,0,1.118,0.046,1.118,0.483c0,0.064-0.007,0.126-0.021,0.178h-0.149
			c0.01-0.046,0.015-0.096,0.015-0.135c0-0.299-0.428-0.346-1.061-0.346h-0.65v-1.131h1.838v0.178H18.758z"/>
		<path fill="#414242" d="M18.606,10.044V9.866h1.838v0.178H18.606z"/>
		<path fill="#414242" d="M19.564,6.609v1.167h0.88v0.178h-1.838V7.777h0.806V6.609h-0.806V6.434h1.838v0.176H19.564z"/>
		<path fill="#414242" d="M19.564,3.202v1.167h0.88v0.178h-1.838V4.369h0.806V3.202h-0.806V3.026h1.838v0.176H19.564z"/>
		<path fill="#414242" d="M19.679,0.191v0.258l0.765,0.612v0.241l-0.79-0.656c-0.041,0.335-0.305,0.506-0.506,0.506
			c-0.413,0-0.542-0.295-0.542-0.662V0.013h1.838v0.178H19.679z M18.758,0.522c0,0.279,0.145,0.438,0.395,0.438
			c0.229,0,0.375-0.173,0.375-0.49V0.191h-0.77V0.522z"/>
	</g>
</g>
</svg>
