<?xml version="1.0" encoding="utf-8"?>
<!-- Generator: Adobe Illustrator 16.0.2, SVG Export Plug-In . SVG Version: 6.00 Build 0)  -->
<!DOCTYPE svg PUBLIC "-//W3C//DTD SVG 1.1//EN" "http://www.w3.org/Graphics/SVG/1.1/DTD/svg11.dtd">
<svg version="1.1" id="Layer_1" xmlns="http://www.w3.org/2000/svg" xmlns:xlink="http://www.w3.org/1999/xlink" x="0px" y="0px"
	 width="151.25px" height="150px" viewBox="0 0 151.25 150" enable-background="new 0 0 151.25 150" xml:space="preserve">
<polygon fill="#F16B21" points="1.016,55.168 1.016,55.168 150.372,5.279 130.538,144.721 "/>
<g>
	<path fill="#FFFFFF" d="M95.751,85.197c-1.584-1.297-2.356-3.46-2.993-5.955c8.709-2.791,15.328-14.485,15.328-26.867
		c0-1.568-0.108-3.095-0.308-4.585H70.106c-0.2,1.49-0.309,3.017-0.309,4.585c0,12.477,6.519,24.256,15.277,26.932
		c-0.467,2.152-1.076,4.147-2.661,5.657c-6.017,5.735-9.792,13.06-6.741,13.06c5.214,0,20.86,0,26.539,0
		C105.499,98.023,102.672,90.872,95.751,85.197z M97.72,50.499h7.41c-0.135,13.327-3.603,23.078-13.354,26.437
		C98.277,72.277,97.895,63.501,97.72,50.499z M99.395,95.605c-0.925,0-2.126,0-3.491,0c1.558-1.313-1.852-9.314-5.823-11.593h2.816
		l0.027,0.021C99.854,89.159,102.683,95.605,99.395,95.605z"/>
	<path fill="#FFFFFF" d="M120.516,49.707c-0.464-1.361-1.419-2.354-2.837-2.939c-0.491-0.203-1.01-0.305-1.544-0.305
		c-1.534,0-3.17,0.844-4.862,2.516c-1.396,0.416-2.388,1.721-2.388,3.203c0,1.842,1.5,3.342,3.342,3.342
		c1.843,0,3.346-1.5,3.346-3.342c0-0.616-0.166-1.205-0.474-1.713c0.379-0.152,0.656-0.193,0.846-0.193l0.258,0.044
		c0.453,0.187,0.582,0.362,0.674,0.626c0.233,0.694,0.697,3.481-3.187,10.229c-1.652,2.86-4.473,5.837-7.392,7.791
		c-1.436,0.264-2.495,1.51-2.495,2.986c0,1.676,1.368,3.044,3.044,3.044c1.683,0,3.051-1.368,3.051-3.044
		c0-0.6-0.18-1.172-0.498-1.663c3.261-2.188,5.915-4.834,7.375-7.367C120.262,56.875,121.484,52.551,120.516,49.707z"/>
	<path fill="#FFFFFF" d="M71.563,68.962c-2.919-1.957-5.739-4.923-7.388-7.787c-3.891-6.751-3.42-9.538-3.184-10.229
		c0.089-0.26,0.224-0.439,0.674-0.629l0.258-0.045c0.189,0,0.471,0.045,0.85,0.197c-0.314,0.508-0.48,1.097-0.48,1.709
		c0,1.846,1.5,3.346,3.345,3.346c1.842,0,3.342-1.5,3.342-3.346c0-1.479-0.988-2.783-2.39-3.199c-1.69-1.672-3.323-2.52-4.862-2.52
		c-0.528,0-1.047,0.102-1.537,0.305c-1.419,0.59-2.374,1.582-2.841,2.946c-0.965,2.845,0.257,7.165,3.741,13.208
		c1.456,2.537,4.114,5.184,7.374,7.375c-0.318,0.487-0.49,1.057-0.49,1.659c0,1.679,1.364,3.044,3.04,3.044
		c1.68,0,3.048-1.365,3.048-3.044C74.062,70.473,73.001,69.227,71.563,68.962z"/>
</g>
</svg>
