<?xml version="1.0" encoding="utf-8"?>
<!-- Generator: Adobe Illustrator 16.0.2, SVG Export Plug-In . SVG Version: 6.00 Build 0)  -->
<!DOCTYPE svg PUBLIC "-//W3C//DTD SVG 1.1//EN" "http://www.w3.org/Graphics/SVG/1.1/DTD/svg11.dtd">
<svg version="1.1" id="Layer_1" xmlns="http://www.w3.org/2000/svg" xmlns:xlink="http://www.w3.org/1999/xlink" x="0px" y="0px"
	 width="68px" height="57px" viewBox="0 0 68 57" enable-background="new 0 0 68 57" xml:space="preserve">
<g>
	<polygon fill="#B2B2B2" points="0.035,57 0.035,57 37.611,0.27 67.965,53.024 	"/>
	<g>
		<g>
			<path fill="#FFFFFF" d="M26.317,46.403c-4.682,0-7.458-3.553-7.458-8.07c0-4.753,3.059-8.306,7.717-8.306
				c4.871,0,7.529,3.646,7.529,8.023c0,5.224-3.129,8.353-7.765,8.353H26.317z M26.505,43.557c2.424,0,3.812-2.282,3.812-5.389
				c0-2.847-1.341-5.294-3.812-5.294c-2.47,0-3.858,2.4-3.858,5.364c0,2.988,1.435,5.318,3.835,5.318H26.505z"/>
			<path fill="#FFFFFF" d="M40.507,34.639v4.588h0.376l2.918-4.588h4.164l-4.234,4.965c1.365,0.235,2.234,1.482,2.895,3.152
				c0.399,0.941,0.822,2.307,1.388,3.389h-3.741c-0.307-0.494-0.588-1.317-1.035-2.541c-0.494-1.317-1.224-2.023-2.377-2.023h-0.353
				v4.564H36.93V34.639H40.507z"/>
		</g>
	</g>
</g>
</svg>
