<?xml version="1.0" encoding="utf-8"?>
<!-- Generator: Adobe Illustrator 16.0.2, SVG Export Plug-In . SVG Version: 6.00 Build 0)  -->
<!DOCTYPE svg PUBLIC "-//W3C//DTD SVG 1.1//EN" "http://www.w3.org/Graphics/SVG/1.1/DTD/svg11.dtd">
<svg version="1.1" id="Layer_1" xmlns="http://www.w3.org/2000/svg" xmlns:xlink="http://www.w3.org/1999/xlink" x="0px" y="0px"
	 width="129.532px" height="157.35px" viewBox="0 0 129.532 157.35" enable-background="new 0 0 129.532 157.35"
	 xml:space="preserve">
<circle display="none" fill="#F16B21" cx="64.744" cy="81.35" r="49"/>
<polygon fill="#F16B21" points="129.532,0 129.532,0 123.446,157.35 0,89.539 "/>
<circle display="none" fill="#F16B21" cx="80" cy="76.35" r="49"/>
<g>
	<path fill="#FFFFFF" d="M81.632,70.361c0,2.042-1.986,3.696-4.43,3.696h-8.709c-2.444,0-4.429-1.654-4.429-3.696
		s1.984-3.695,4.429-3.695h8.709C79.646,66.666,81.632,68.319,81.632,70.361z"/>
	<path fill="#FFFFFF" d="M83.844,79.424c0,1.969-1.598,3.563-3.563,3.563H63.992c-1.968,0-3.565-1.595-3.565-3.563
		c0-1.971,1.598-3.565,3.565-3.565H80.28C82.246,75.858,83.844,77.453,83.844,79.424z"/>
	<path fill="#FFFFFF" d="M89.287,54.733c0-2.945,0.032-0.957,0.032-4.13c0-7.131-9.005-7.216-9.005-0.109c0,4.545,0,7.332,0,7.332
		c0,6.514,3.115,9.514,3.115,12.535c0,1.238-0.481,2.367-1.266,3.285c0,0.258-0.003,0.508-0.003,0.771
		c2.03,0.765,3.483,2.71,3.483,5.005c0,1.895-1.003,3.543-2.492,4.492c1.492,0.957,2.492,2.616,2.492,4.517
		c0,2.303-1.47,4.257-3.515,5.016c-0.009,4.37-0.014,7.497-0.014,7.497s10.405,0,12.644,0c6.27,0,10.772-6.528,10.772-11.462
		c0-3.331,0-7.429,0-11.784C105.532,70.688,89.287,62.612,89.287,54.733z"/>
	<path fill="#FFFFFF" d="M83.844,88.431c0,1.969-1.598,3.563-3.563,3.563H63.992c-1.968,0-3.565-1.595-3.565-3.563
		c0-1.972,1.598-3.565,3.565-3.565H80.28C82.246,84.865,83.844,86.459,83.844,88.431z"/>
	<path fill="#FFFFFF" d="M80.241,97.363c0,2.008-1.629,3.637-3.643,3.637h-7.053c-2.011,0-3.639-1.629-3.639-3.637
		c0-2.014,1.628-3.643,3.639-3.643h7.053C78.612,93.721,80.241,95.35,80.241,97.363z"/>
</g>
</svg>
