<?xml version="1.0" encoding="utf-8"?>
<!-- Generator: Adobe Illustrator 16.0.2, SVG Export Plug-In . SVG Version: 6.00 Build 0)  -->
<!DOCTYPE svg PUBLIC "-//W3C//DTD SVG 1.1//EN" "http://www.w3.org/Graphics/SVG/1.1/DTD/svg11.dtd">
<svg version="1.1" id="Layer_1" xmlns="http://www.w3.org/2000/svg" xmlns:xlink="http://www.w3.org/1999/xlink" x="0px" y="0px"
	 width="134.313px" height="156px" viewBox="0 0 134.313 156" enable-background="new 0 0 134.313 156" xml:space="preserve">
<polygon fill="#F16B21" points="23.953,0 23.953,0 134.314,112.322 0.31,155.682 "/>
<circle display="none" fill="#F16B21" cx="64.744" cy="80" r="49"/>
<g>
	<polygon fill="#FFFFFF" points="56.185,61.398 50.007,75.277 47.746,70.584 36.416,71.014 30.31,76.008 36.456,59.773 
		45.698,58.908 43.929,54 	"/>
	<g>
		<path fill="#FFFFFF" d="M42.177,76.379c0.25,3.902,1.38,10.481,5.975,14.007c-0.693,0.915-1.395,1.792-2.118,2.696
			c-0.867,1.084-1.753,2.191-2.647,3.399c-6.092-4.493-8.637-13.47-9.44-17.066l3.497-2.853L42.177,76.379 M44.969,73.434
			l-8.583,0.333l-5.549,4.526c0,0,2.483,16.561,13.339,21.988c2.714-4.071,5.429-6.785,8.143-10.856
			C44.176,86.711,44.969,73.434,44.969,73.434L44.969,73.434z"/>
	</g>
	<polygon fill="#FFFFFF" points="57.653,94.383 63.831,80.504 66.092,85.197 77.422,84.768 83.528,79.773 77.382,96.008 
		68.14,96.873 69.909,101.781 	"/>
	<g>
		<path fill="#FFFFFF" d="M70.452,59.3c6.092,4.492,8.637,13.469,9.439,17.067l-3.496,2.852l-4.734,0.184
			c-0.25-3.902-1.38-10.481-5.975-14.006c0.691-0.915,1.394-1.791,2.116-2.695C68.671,61.617,69.558,60.509,70.452,59.3
			 M69.662,55.5c-2.714,4.072-5.429,6.785-8.143,10.856c8.143,2.714,7.35,15.991,7.35,15.991l8.583-0.333l5.549-4.525
			C83.001,77.489,80.518,60.928,69.662,55.5L69.662,55.5z"/>
	</g>
</g>
</svg>
