<?xml version="1.0" encoding="utf-8"?>
<!-- Generator: Adobe Illustrator 16.0.2, SVG Export Plug-In . SVG Version: 6.00 Build 0)  -->
<!DOCTYPE svg PUBLIC "-//W3C//DTD SVG 1.1//EN" "http://www.w3.org/Graphics/SVG/1.1/DTD/svg11.dtd">
<svg version="1.1" id="Layer_1" xmlns="http://www.w3.org/2000/svg" xmlns:xlink="http://www.w3.org/1999/xlink" x="0px" y="0px"
	 width="48px" height="43px" viewBox="0 0 48 43" enable-background="new 0 0 48 43" xml:space="preserve">
<g>
	<path fill="#F16B21" d="M19.841,3.929L10.06,20.451c-0.283,0.474-0.177,1.04,0.237,1.258c0.41,0.222,0.973,0.016,1.255-0.458
		l9.781-16.521c0.279-0.475,0.174-1.04-0.238-1.259C20.684,3.249,20.121,3.455,19.841,3.929z"/>
	<path fill="#F16B21" d="M25.286,5.431l-0.285-0.522c-0.241-0.436-0.297-0.943-0.149-1.391c0.13-0.391,0.404-0.709,0.77-0.89
		c0.221-0.107,0.461-0.165,0.713-0.165c0.648,0,1.282,0.387,1.61,0.986l0.335,0.615c0.16-0.324,0.257-0.683,0.257-1.064
		c0-1.385-1.179-2.507-2.638-2.507c-1.455,0-2.635,1.122-2.635,2.507C23.264,4.182,24.127,5.166,25.286,5.431z"/>
	<path fill="#F16B21" d="M19.139,3.554c0.342-0.576,0.954-0.935,1.594-0.935c0.268,0,0.526,0.065,0.755,0.186
		c0.359,0.194,0.623,0.516,0.737,0.911c0.121,0.399,0.068,0.842-0.123,1.239c0.608-0.458,1.007-1.16,1.007-1.956
		c0-1.385-1.18-2.507-2.637-2.507c-1.456,0-2.637,1.122-2.637,2.507c0,0.631,0.255,1.201,0.661,1.644L19.139,3.554z"/>
	<path fill="#F16B21" d="M42.498,24.279h2.076c1.737,0,2.938-1.866,2.938-3.85c0-1.986-1.403-3.233-3.14-3.233h-9.111l0.275,0.138
		c1.984,0.146,3.559,1.704,3.559,3.619c0,2.012-1.728,3.649-3.853,3.649c-2.126,0-3.855-1.637-3.855-3.649
		c0-0.955,0.399-1.818,1.038-2.468l-0.903-1.289H15.087l-0.93,1.209c0.687,0.662,1.109,1.567,1.109,2.565
		c0,2.02-1.728,3.665-3.852,3.665S7.561,22.99,7.561,20.97c0-1.874,1.496-3.407,3.413-3.618l0.304-0.156H3.139
		C1.404,17.196,0,18.443,0,20.429c0,1.984,1.404,3.85,3.139,3.85h0.909v11.13c0,3.597,2.733,7.591,6.107,7.591
		c0,0,19.786,0,24.845,0c7,0,7.498-7.591,7.498-7.591V24.279z M12.577,37.433H8.824V25.291h3.753V37.433z M21.118,37.433h-3.917
		V25.291h3.917V37.433z M28.896,37.433h-3.752V25.291h3.752V37.433z M37.438,37.433h-3.917V25.291h3.917V37.433z"/>
	<path fill="#F16B21" d="M25.993,3.305c-0.419,0.207-0.546,0.766-0.281,1.25l9.198,16.821c0.266,0.482,0.819,0.708,1.239,0.5
		c0.419-0.209,0.546-0.767,0.28-1.251L27.232,3.802C26.967,3.32,26.412,3.097,25.993,3.305z"/>
</g>
</svg>
